<svg xmlns="http://www.w3.org/2000/svg" viewBox="0 0 128 128">
  <rect width="128" height="128" rx="24" fill="#24292f"/>
  <path fill="#ffffff" d="M64 16c-26.5 0-48 21.5-48 48 0 21.2 13.7 39.1 32.8 45.5 2.4.4 3.3-1 3.3-2.3v-8.9c-13.3 2.9-16.1-5.7-16.1-5.7-2.2-5.5-5.3-7-5.3-7-4.3-3 .3-2.9.3-2.9 4.8.3 7.3 4.9 7.3 4.9 4.2 7.3 11.1 5.2 13.8 4 .4-3.1 1.7-5.2 3-6.4-10.6-1.2-21.8-5.3-21.8-23.7 0-5.2 1.9-9.5 4.9-12.9-.5-1.2-2.1-6.1.5-12.8 0 0 4-1.3 13.1 4.9 3.8-1 7.9-1.6 12-1.6 4.1 0 8.2.6 12 1.6 9.1-6.2 13.1-4.9 13.1-4.9 2.6 6.7 1 11.6.5 12.8 3 3.4 4.9 7.7 4.9 12.9 0 18.5-11.2 22.5-21.9 23.7 1.7 1.5 3.3 4.5 3.3 9v13.3c0 1.3.9 2.8 3.3 2.3C98.3 103.1 112 85.2 112 64c0-26.5-21.5-48-48-48z"/>
  <circle cx="96" cy="96" r="26" fill="#2ea043" stroke="#24292f" stroke-width="4"/>
  <path fill="none" stroke="#ffffff" stroke-width="5" stroke-linecap="round" stroke-linejoin="round" d="M85 96.5l7 7 14-15"/>
</svg>
